<svg width="16" height="17" viewBox="0 0 16 17" fill="none" xmlns="http://www.w3.org/2000/svg">
<path d="M16 15.6867C16 15.8707 15.85 16.02 15.6667 16.02L2.33333 16.004C1.04733 16.004 0 14.9573 0 13.6707V0.337331C0 0.153331 0.149333 0.0039978 0.333333 0.0039978C0.517333 0.0039978 0.666667 0.153331 0.666667 0.337331V13.6707C0.666667 14.5893 1.41467 15.3373 2.33333 15.3373L15.6673 15.3533C15.8507 15.3533 16 15.5033 16 15.6867ZM3.33333 8.35333V13.004C3.33333 13.188 3.48267 13.3373 3.66667 13.3373C3.85067 13.3373 4 13.188 4 13.004V8.35333C4 8.16933 3.85067 8.02 3.66667 8.02C3.48267 8.02 3.33333 8.16933 3.33333 8.35333ZM6.66667 7.02V13.004C6.66667 13.188 6.816 13.3373 7 13.3373C7.184 13.3373 7.33333 13.188 7.33333 13.004V7.02C7.33333 6.836 7.184 6.68666 7 6.68666C6.816 6.68666 6.66667 6.836 6.66667 7.02ZM10 9.02V13.004C10 13.188 10.1493 13.3373 10.3333 13.3373C10.5173 13.3373 10.6667 13.188 10.6667 13.004V9.02C10.6667 8.836 10.5173 8.68666 10.3333 8.68666C10.1493 8.68666 10 8.836 10 9.02ZM13.3333 6.33733V13.004C13.3333 13.188 13.4827 13.3373 13.6667 13.3373C13.8507 13.3373 14 13.188 14 13.004V6.33733C14 6.15333 13.8507 6.004 13.6667 6.004C13.4827 6.004 13.3333 6.15333 13.3333 6.33733ZM3 6.004C3.08533 6.004 3.17067 5.97133 3.236 5.90666L6.21867 2.924C6.466 2.67666 6.868 2.67666 7.11533 2.924L9.08067 4.89C9.58867 5.396 10.4127 5.396 10.9207 4.89L15.236 0.573331C15.366 0.443331 15.366 0.231998 15.236 0.101998C15.106 -0.0280022 14.8947 -0.0280022 14.7647 0.101998L10.4487 4.418C10.2013 4.66533 9.79867 4.66533 9.55133 4.418L7.586 2.45266C7.07867 1.94533 6.254 1.94533 5.74667 2.45266L2.764 5.43533C2.634 5.56533 2.634 5.77666 2.764 5.90666C2.82933 5.972 2.91467 6.004 3 6.004Z" fill="black"/>
<path d="M16 15.6867C16 15.8707 15.85 16.02 15.6667 16.02L2.33333 16.004C1.04733 16.004 0 14.9573 0 13.6707V0.337331C0 0.153331 0.149333 0.0039978 0.333333 0.0039978C0.517333 0.0039978 0.666667 0.153331 0.666667 0.337331V13.6707C0.666667 14.5893 1.41467 15.3373 2.33333 15.3373L15.6673 15.3533C15.8507 15.3533 16 15.5033 16 15.6867ZM3.33333 8.35333V13.004C3.33333 13.188 3.48267 13.3373 3.66667 13.3373C3.85067 13.3373 4 13.188 4 13.004V8.35333C4 8.16933 3.85067 8.02 3.66667 8.02C3.48267 8.02 3.33333 8.16933 3.33333 8.35333ZM6.66667 7.02V13.004C6.66667 13.188 6.816 13.3373 7 13.3373C7.184 13.3373 7.33333 13.188 7.33333 13.004V7.02C7.33333 6.836 7.184 6.68666 7 6.68666C6.816 6.68666 6.66667 6.836 6.66667 7.02ZM10 9.02V13.004C10 13.188 10.1493 13.3373 10.3333 13.3373C10.5173 13.3373 10.6667 13.188 10.6667 13.004V9.02C10.6667 8.836 10.5173 8.68666 10.3333 8.68666C10.1493 8.68666 10 8.836 10 9.02ZM13.3333 6.33733V13.004C13.3333 13.188 13.4827 13.3373 13.6667 13.3373C13.8507 13.3373 14 13.188 14 13.004V6.33733C14 6.15333 13.8507 6.004 13.6667 6.004C13.4827 6.004 13.3333 6.15333 13.3333 6.33733ZM3 6.004C3.08533 6.004 3.17067 5.97133 3.236 5.90666L6.21867 2.924C6.466 2.67666 6.868 2.67666 7.11533 2.924L9.08067 4.89C9.58867 5.396 10.4127 5.396 10.9207 4.89L15.236 0.573331C15.366 0.443331 15.366 0.231998 15.236 0.101998C15.106 -0.0280022 14.8947 -0.0280022 14.7647 0.101998L10.4487 4.418C10.2013 4.66533 9.79867 4.66533 9.55133 4.418L7.586 2.45266C7.07867 1.94533 6.254 1.94533 5.74667 2.45266L2.764 5.43533C2.634 5.56533 2.634 5.77666 2.764 5.90666C2.82933 5.972 2.91467 6.004 3 6.004Z" fill="url(#paint0_radial_0_53)"/>
<defs>
<radialGradient id="paint0_radial_0_53" cx="0" cy="0" r="1" gradientTransform="matrix(-15.04 -10.8495 13.44 -12.1412 14.08 14.9867)" gradientUnits="userSpaceOnUse">
<stop stop-color="#C2B200"/>
<stop offset="1" stop-color="#FFEA00"/>
</radialGradient>
</defs>
</svg>
