<svg width="16" height="16" viewBox="0 0 16 16" fill="none" xmlns="http://www.w3.org/2000/svg">
<path d="M16 14.8333V15.6667C16 15.8507 15.8507 16 15.6667 16C15.4827 16 15.3333 15.8507 15.3333 15.6667V14.8333C15.3333 13.6387 14.3613 12.6667 13.1667 12.6667C11.972 12.6667 11 13.6387 11 14.8333V15.6667C10.9913 15.842 10.8773 16 10.6673 16C10.4813 16 10.3793 15.88 10.34 15.7333C10.136 14.7287 9.152 14 8 14C6.848 14 5.864 14.7287 5.66 15.7333C5.62 15.8847 5.48933 15.9913 5.33333 16C5.15533 15.9953 5.00867 15.846 5 15.6667V14.8333C5 13.6387 4.028 12.6667 2.83333 12.6667C1.63867 12.6667 0.666667 13.6387 0.666667 14.8333V15.6667C0.666667 15.8507 0.517333 16 0.333333 16C0.149333 16 0 15.8507 0 15.6667V14.8333C0 13.2707 1.27133 12 2.83333 12C4.242 12 5.40467 13.0367 5.62133 14.3853C6.184 13.7413 7.04467 13.3333 8 13.3333C8.95533 13.3333 9.816 13.7413 10.3787 14.3853C10.5953 13.0367 11.7573 12 13.1667 12C14.7293 12 16 13.2707 16 14.8333ZM1.33333 9.66667C1.33333 8.74733 2.08133 8 3 8C3.91867 8 4.66667 8.74733 4.66667 9.66667C4.66667 10.586 3.91867 11.3333 3 11.3333C2.08133 11.3333 1.33333 10.586 1.33333 9.66667ZM2 9.66667C2 10.218 2.44867 10.6667 3 10.6667C3.55133 10.6667 4 10.218 4 9.66667C4 9.11533 3.55133 8.66667 3 8.66667C2.44867 8.66667 2 9.11533 2 9.66667ZM8 9.33333C8.91933 9.33333 9.66667 10.0807 9.66667 11C9.66667 11.9193 8.91933 12.6667 8 12.6667C7.08067 12.6667 6.33333 11.9193 6.33333 11C6.33333 10.0807 7.08133 9.33333 8 9.33333ZM8 10C7.44867 10 7 10.4487 7 11C7 11.5513 7.44867 12 8 12C8.55133 12 9 11.5513 9 11C9 10.4487 8.55133 10 8 10ZM11.3333 9.66667C11.3333 8.74733 12.0807 8 13 8C13.9193 8 14.6667 8.74733 14.6667 9.66667C14.6667 10.586 13.9193 11.3333 13 11.3333C12.0807 11.3333 11.3333 10.586 11.3333 9.66667ZM12 9.66667C12 10.218 12.4487 10.6667 13 10.6667C13.5513 10.6667 14 10.218 14 9.66667C14 9.11533 13.5513 8.66667 13 8.66667C12.4487 8.66667 12 9.11533 12 9.66667ZM8 5.33333C7.26467 5.33333 6.66667 4.73533 6.66667 4C6.66667 3.26467 7.26467 2.66667 8 2.66667C8.73533 2.66667 9.33333 3.26467 9.33333 4C9.33333 4.73533 8.73533 5.33333 8 5.33333ZM8 3.33333C7.63267 3.33333 7.33333 3.632 7.33333 4C7.33333 4.368 7.63267 4.66667 8 4.66667C8.36733 4.66667 8.66667 4.368 8.66667 4C8.66667 3.632 8.36733 3.33333 8 3.33333ZM8 8C7.44867 8 7 7.55133 7 7V6.81933C6.65667 6.69933 6.34067 6.522 6.06933 6.29533L5.92 6.38333C5.69067 6.51867 5.422 6.558 5.162 6.48867C4.90333 6.42133 4.68667 6.25733 4.55067 6.028C4.41533 5.79733 4.378 5.52867 4.44467 5.26933C4.512 5.01067 4.676 4.794 4.906 4.65867L5.06133 4.56733C5.01867 4.36733 4.99867 4.18333 4.99867 4C4.99867 3.81667 5.01867 3.63267 5.06133 3.43333L4.906 3.342C4.43067 3.062 4.27067 2.448 4.55 1.97267C4.83 1.49733 5.44333 1.338 5.91933 1.61733L6.068 1.70467C6.34 1.478 6.65533 1.30067 6.99867 1.18067V1C6.99867 0.448667 7.44733 0 7.99867 0C8.55 0 8.99867 0.448667 8.99867 1V1.18067C9.342 1.30067 9.65733 1.478 9.92933 1.70467L10.078 1.61733C10.5527 1.338 11.1673 1.498 11.4467 1.97267C11.726 2.448 11.5667 3.062 11.0913 3.34133L10.936 3.43333C10.9787 3.63267 10.9987 3.81667 10.9987 4C10.9987 4.18333 10.9787 4.36733 10.936 4.56733L11.092 4.65933C11.322 4.794 11.4853 5.01067 11.5527 5.26933C11.62 5.528 11.582 5.79733 11.4467 6.028C11.3113 6.258 11.0947 6.422 10.8353 6.48867C10.5773 6.558 10.308 6.51867 10.0773 6.38267L9.92867 6.29533C9.65733 6.522 9.34133 6.69933 8.998 6.81933V7C8.998 7.55133 8.54933 8 7.998 8H8ZM6.112 5.55C6.198 5.55 6.284 5.58333 6.348 5.64733C6.634 5.93467 7.00333 6.142 7.41667 6.24867C7.564 6.28733 7.66667 6.42 7.66667 6.57133V6.99933C7.66667 7.18267 7.816 7.33267 8 7.33267C8.184 7.33267 8.33333 7.18267 8.33333 6.99933V6.57133C8.33333 6.41933 8.436 6.28667 8.58333 6.24867C8.99667 6.142 9.366 5.934 9.652 5.64733C9.76 5.54067 9.926 5.52 10.0567 5.59533L10.4173 5.80667C10.5687 5.90133 10.786 5.84533 10.874 5.68867C10.968 5.53667 10.9127 5.32 10.756 5.23267L10.3847 5.014C10.254 4.93733 10.1913 4.78133 10.2333 4.636C10.302 4.39533 10.334 4.19267 10.334 3.99933C10.334 3.806 10.302 3.60333 10.2333 3.36267C10.192 3.21667 10.254 3.06133 10.3853 2.984L10.756 2.76667C10.914 2.67333 10.9673 2.46867 10.874 2.31C10.7867 2.154 10.57 2.09733 10.418 2.19133L10.0573 2.40333C9.92733 2.48067 9.76 2.45867 9.65267 2.35133C9.366 2.064 8.99667 1.856 8.584 1.74933C8.43667 1.71133 8.334 1.57867 8.334 1.42667V0.998667C8.334 0.814667 8.18467 0.665333 8.00067 0.665333C7.81667 0.665333 7.66733 0.814667 7.66733 0.998667V1.42667C7.66733 1.57867 7.56467 1.71133 7.41733 1.74933C7.00467 1.856 6.63533 2.06467 6.34867 2.35133C6.24133 2.45867 6.074 2.48067 5.944 2.40333L5.58333 2.19133C5.42533 2.098 5.22067 2.15133 5.12667 2.31C5.034 2.468 5.08667 2.67267 5.246 2.76667L5.616 2.98333C5.74733 3.06 5.81 3.21667 5.768 3.362C5.69933 3.60267 5.66733 3.80533 5.66733 3.99867C5.66733 4.192 5.69933 4.39467 5.768 4.63533C5.80933 4.78133 5.74733 4.93667 5.616 5.01333L5.24533 5.23133C5.08933 5.31933 5.03267 5.53467 5.12667 5.68733C5.21467 5.84467 5.42933 5.9 5.58333 5.80667L5.94467 5.59467C5.99733 5.564 6.05533 5.54933 6.11333 5.54933L6.112 5.55Z" fill="white" fill-opacity="0.5"/>
<path d="M16 14.8333V15.6667C16 15.8507 15.8507 16 15.6667 16C15.4827 16 15.3333 15.8507 15.3333 15.6667V14.8333C15.3333 13.6387 14.3613 12.6667 13.1667 12.6667C11.972 12.6667 11 13.6387 11 14.8333V15.6667C10.9913 15.842 10.8773 16 10.6673 16C10.4813 16 10.3793 15.88 10.34 15.7333C10.136 14.7287 9.152 14 8 14C6.848 14 5.864 14.7287 5.66 15.7333C5.62 15.8847 5.48933 15.9913 5.33333 16C5.15533 15.9953 5.00867 15.846 5 15.6667V14.8333C5 13.6387 4.028 12.6667 2.83333 12.6667C1.63867 12.6667 0.666667 13.6387 0.666667 14.8333V15.6667C0.666667 15.8507 0.517333 16 0.333333 16C0.149333 16 0 15.8507 0 15.6667V14.8333C0 13.2707 1.27133 12 2.83333 12C4.242 12 5.40467 13.0367 5.62133 14.3853C6.184 13.7413 7.04467 13.3333 8 13.3333C8.95533 13.3333 9.816 13.7413 10.3787 14.3853C10.5953 13.0367 11.7573 12 13.1667 12C14.7293 12 16 13.2707 16 14.8333ZM1.33333 9.66667C1.33333 8.74733 2.08133 8 3 8C3.91867 8 4.66667 8.74733 4.66667 9.66667C4.66667 10.586 3.91867 11.3333 3 11.3333C2.08133 11.3333 1.33333 10.586 1.33333 9.66667ZM2 9.66667C2 10.218 2.44867 10.6667 3 10.6667C3.55133 10.6667 4 10.218 4 9.66667C4 9.11533 3.55133 8.66667 3 8.66667C2.44867 8.66667 2 9.11533 2 9.66667ZM8 9.33333C8.91933 9.33333 9.66667 10.0807 9.66667 11C9.66667 11.9193 8.91933 12.6667 8 12.6667C7.08067 12.6667 6.33333 11.9193 6.33333 11C6.33333 10.0807 7.08133 9.33333 8 9.33333ZM8 10C7.44867 10 7 10.4487 7 11C7 11.5513 7.44867 12 8 12C8.55133 12 9 11.5513 9 11C9 10.4487 8.55133 10 8 10ZM11.3333 9.66667C11.3333 8.74733 12.0807 8 13 8C13.9193 8 14.6667 8.74733 14.6667 9.66667C14.6667 10.586 13.9193 11.3333 13 11.3333C12.0807 11.3333 11.3333 10.586 11.3333 9.66667ZM12 9.66667C12 10.218 12.4487 10.6667 13 10.6667C13.5513 10.6667 14 10.218 14 9.66667C14 9.11533 13.5513 8.66667 13 8.66667C12.4487 8.66667 12 9.11533 12 9.66667ZM8 5.33333C7.26467 5.33333 6.66667 4.73533 6.66667 4C6.66667 3.26467 7.26467 2.66667 8 2.66667C8.73533 2.66667 9.33333 3.26467 9.33333 4C9.33333 4.73533 8.73533 5.33333 8 5.33333ZM8 3.33333C7.63267 3.33333 7.33333 3.632 7.33333 4C7.33333 4.368 7.63267 4.66667 8 4.66667C8.36733 4.66667 8.66667 4.368 8.66667 4C8.66667 3.632 8.36733 3.33333 8 3.33333ZM8 8C7.44867 8 7 7.55133 7 7V6.81933C6.65667 6.69933 6.34067 6.522 6.06933 6.29533L5.92 6.38333C5.69067 6.51867 5.422 6.558 5.162 6.48867C4.90333 6.42133 4.68667 6.25733 4.55067 6.028C4.41533 5.79733 4.378 5.52867 4.44467 5.26933C4.512 5.01067 4.676 4.794 4.906 4.65867L5.06133 4.56733C5.01867 4.36733 4.99867 4.18333 4.99867 4C4.99867 3.81667 5.01867 3.63267 5.06133 3.43333L4.906 3.342C4.43067 3.062 4.27067 2.448 4.55 1.97267C4.83 1.49733 5.44333 1.338 5.91933 1.61733L6.068 1.70467C6.34 1.478 6.65533 1.30067 6.99867 1.18067V1C6.99867 0.448667 7.44733 0 7.99867 0C8.55 0 8.99867 0.448667 8.99867 1V1.18067C9.342 1.30067 9.65733 1.478 9.92933 1.70467L10.078 1.61733C10.5527 1.338 11.1673 1.498 11.4467 1.97267C11.726 2.448 11.5667 3.062 11.0913 3.34133L10.936 3.43333C10.9787 3.63267 10.9987 3.81667 10.9987 4C10.9987 4.18333 10.9787 4.36733 10.936 4.56733L11.092 4.65933C11.322 4.794 11.4853 5.01067 11.5527 5.26933C11.62 5.528 11.582 5.79733 11.4467 6.028C11.3113 6.258 11.0947 6.422 10.8353 6.48867C10.5773 6.558 10.308 6.51867 10.0773 6.38267L9.92867 6.29533C9.65733 6.522 9.34133 6.69933 8.998 6.81933V7C8.998 7.55133 8.54933 8 7.998 8H8ZM6.112 5.55C6.198 5.55 6.284 5.58333 6.348 5.64733C6.634 5.93467 7.00333 6.142 7.41667 6.24867C7.564 6.28733 7.66667 6.42 7.66667 6.57133V6.99933C7.66667 7.18267 7.816 7.33267 8 7.33267C8.184 7.33267 8.33333 7.18267 8.33333 6.99933V6.57133C8.33333 6.41933 8.436 6.28667 8.58333 6.24867C8.99667 6.142 9.366 5.934 9.652 5.64733C9.76 5.54067 9.926 5.52 10.0567 5.59533L10.4173 5.80667C10.5687 5.90133 10.786 5.84533 10.874 5.68867C10.968 5.53667 10.9127 5.32 10.756 5.23267L10.3847 5.014C10.254 4.93733 10.1913 4.78133 10.2333 4.636C10.302 4.39533 10.334 4.19267 10.334 3.99933C10.334 3.806 10.302 3.60333 10.2333 3.36267C10.192 3.21667 10.254 3.06133 10.3853 2.984L10.756 2.76667C10.914 2.67333 10.9673 2.46867 10.874 2.31C10.7867 2.154 10.57 2.09733 10.418 2.19133L10.0573 2.40333C9.92733 2.48067 9.76 2.45867 9.65267 2.35133C9.366 2.064 8.99667 1.856 8.584 1.74933C8.43667 1.71133 8.334 1.57867 8.334 1.42667V0.998667C8.334 0.814667 8.18467 0.665333 8.00067 0.665333C7.81667 0.665333 7.66733 0.814667 7.66733 0.998667V1.42667C7.66733 1.57867 7.56467 1.71133 7.41733 1.74933C7.00467 1.856 6.63533 2.06467 6.34867 2.35133C6.24133 2.45867 6.074 2.48067 5.944 2.40333L5.58333 2.19133C5.42533 2.098 5.22067 2.15133 5.12667 2.31C5.034 2.468 5.08667 2.67267 5.246 2.76667L5.616 2.98333C5.74733 3.06 5.81 3.21667 5.768 3.362C5.69933 3.60267 5.66733 3.80533 5.66733 3.99867C5.66733 4.192 5.69933 4.39467 5.768 4.63533C5.80933 4.78133 5.74733 4.93667 5.616 5.01333L5.24533 5.23133C5.08933 5.31933 5.03267 5.53467 5.12667 5.68733C5.21467 5.84467 5.42933 5.9 5.58333 5.80667L5.94467 5.59467C5.99733 5.564 6.05533 5.54933 6.11333 5.54933L6.112 5.55Z" fill="url(#paint0_radial_0_58)"/>
<defs>
<radialGradient id="paint0_radial_0_58" cx="0" cy="0" r="1" gradientTransform="matrix(-15.04 -10.8387 13.44 -12.129 14.08 14.9677)" gradientUnits="userSpaceOnUse">
<stop stop-color="#C2B200"/>
<stop offset="1" stop-color="#FFEA00"/>
</radialGradient>
</defs>
</svg>
