<svg width="16" height="16" viewBox="0 0 16 16" fill="none" xmlns="http://www.w3.org/2000/svg">
<path d="M8 2.66667C8.73533 2.66667 9.33333 2.06867 9.33333 1.33333C9.33333 0.598 8.73533 0 8 0C7.26467 0 6.66667 0.598 6.66667 1.33333C6.66667 2.06867 7.26467 2.66667 8 2.66667ZM8 0.666667C8.36733 0.666667 8.66667 0.966 8.66667 1.33333C8.66667 1.70067 8.36733 2 8 2C7.63267 2 7.33333 1.70067 7.33333 1.33333C7.33333 0.966 7.63267 0.666667 8 0.666667ZM16 8.66667V9.33333H15.3333V8.66667C15.3333 8.29933 15.0347 8 14.6667 8H13.3333C12.9653 8 12.6667 8.29933 12.6667 8.66667V9.33333H12V8.66667C12 7.93133 12.598 7.33333 13.3333 7.33333H14.6667C15.402 7.33333 16 7.93133 16 8.66667ZM6.66667 5.33333H6V4.66667C6 3.93133 6.598 3.33333 7.33333 3.33333H8.66667C9.402 3.33333 10 3.93133 10 4.66667V5.33333H9.33333V4.66667C9.33333 4.29933 9.03467 4 8.66667 4H7.33333C6.966 4 6.66667 4.29933 6.66667 4.66667V5.33333ZM14 6.66667C14.7353 6.66667 15.3333 6.06867 15.3333 5.33333C15.3333 4.598 14.7353 4 14 4C13.2647 4 12.6667 4.598 12.6667 5.33333C12.6667 6.06867 13.2647 6.66667 14 6.66667ZM14 4.66667C14.368 4.66667 14.6667 4.966 14.6667 5.33333C14.6667 5.70067 14.368 6 14 6C13.632 6 13.3333 5.70067 13.3333 5.33333C13.3333 4.966 13.632 4.66667 14 4.66667ZM2 5.33333C2.73533 5.33333 3.33333 4.73533 3.33333 4C3.33333 3.26467 2.73533 2.66667 2 2.66667C1.26467 2.66667 0.666667 3.26467 0.666667 4C0.666667 4.73533 1.26467 5.33333 2 5.33333ZM2 3.33333C2.36733 3.33333 2.66667 3.63267 2.66667 4C2.66667 4.36733 2.36733 4.66667 2 4.66667C1.63267 4.66667 1.33333 4.36733 1.33333 4C1.33333 3.63267 1.63267 3.33333 2 3.33333ZM14.6667 11.3333H11.6667C11.424 11.3333 11.196 11.3987 11 11.5127V8C11 7.26467 10.402 6.66667 9.66667 6.66667H6.33333C5.598 6.66667 5 7.26467 5 8V9.51267C4.804 9.39867 4.576 9.33333 4.33333 9.33333H1.33333C0.598 9.33333 0 9.93133 0 10.6667V16H16V12.6667C16 11.9313 15.402 11.3333 14.6667 11.3333ZM5.66667 8C5.66667 7.63267 5.966 7.33333 6.33333 7.33333H9.66667C10.0347 7.33333 10.3333 7.63267 10.3333 8V15.3333H5.66667V8ZM0.666667 10.6667C0.666667 10.2993 0.966 10 1.33333 10H4.33333C4.70067 10 5 10.2993 5 10.6667V15.3333H0.666667V10.6667ZM15.3333 15.3333H11V12.6667C11 12.2993 11.2987 12 11.6667 12H14.6667C15.0347 12 15.3333 12.2993 15.3333 12.6667V15.3333ZM0.666667 8H0V7.33333C0 6.598 0.598 6 1.33333 6H2.66667C3.402 6 4 6.598 4 7.33333V8H3.33333V7.33333C3.33333 6.966 3.034 6.66667 2.66667 6.66667H1.33333C0.966 6.66667 0.666667 6.966 0.666667 7.33333V8Z" fill="black"/>
<path d="M8 2.66667C8.73533 2.66667 9.33333 2.06867 9.33333 1.33333C9.33333 0.598 8.73533 0 8 0C7.26467 0 6.66667 0.598 6.66667 1.33333C6.66667 2.06867 7.26467 2.66667 8 2.66667ZM8 0.666667C8.36733 0.666667 8.66667 0.966 8.66667 1.33333C8.66667 1.70067 8.36733 2 8 2C7.63267 2 7.33333 1.70067 7.33333 1.33333C7.33333 0.966 7.63267 0.666667 8 0.666667ZM16 8.66667V9.33333H15.3333V8.66667C15.3333 8.29933 15.0347 8 14.6667 8H13.3333C12.9653 8 12.6667 8.29933 12.6667 8.66667V9.33333H12V8.66667C12 7.93133 12.598 7.33333 13.3333 7.33333H14.6667C15.402 7.33333 16 7.93133 16 8.66667ZM6.66667 5.33333H6V4.66667C6 3.93133 6.598 3.33333 7.33333 3.33333H8.66667C9.402 3.33333 10 3.93133 10 4.66667V5.33333H9.33333V4.66667C9.33333 4.29933 9.03467 4 8.66667 4H7.33333C6.966 4 6.66667 4.29933 6.66667 4.66667V5.33333ZM14 6.66667C14.7353 6.66667 15.3333 6.06867 15.3333 5.33333C15.3333 4.598 14.7353 4 14 4C13.2647 4 12.6667 4.598 12.6667 5.33333C12.6667 6.06867 13.2647 6.66667 14 6.66667ZM14 4.66667C14.368 4.66667 14.6667 4.966 14.6667 5.33333C14.6667 5.70067 14.368 6 14 6C13.632 6 13.3333 5.70067 13.3333 5.33333C13.3333 4.966 13.632 4.66667 14 4.66667ZM2 5.33333C2.73533 5.33333 3.33333 4.73533 3.33333 4C3.33333 3.26467 2.73533 2.66667 2 2.66667C1.26467 2.66667 0.666667 3.26467 0.666667 4C0.666667 4.73533 1.26467 5.33333 2 5.33333ZM2 3.33333C2.36733 3.33333 2.66667 3.63267 2.66667 4C2.66667 4.36733 2.36733 4.66667 2 4.66667C1.63267 4.66667 1.33333 4.36733 1.33333 4C1.33333 3.63267 1.63267 3.33333 2 3.33333ZM14.6667 11.3333H11.6667C11.424 11.3333 11.196 11.3987 11 11.5127V8C11 7.26467 10.402 6.66667 9.66667 6.66667H6.33333C5.598 6.66667 5 7.26467 5 8V9.51267C4.804 9.39867 4.576 9.33333 4.33333 9.33333H1.33333C0.598 9.33333 0 9.93133 0 10.6667V16H16V12.6667C16 11.9313 15.402 11.3333 14.6667 11.3333ZM5.66667 8C5.66667 7.63267 5.966 7.33333 6.33333 7.33333H9.66667C10.0347 7.33333 10.3333 7.63267 10.3333 8V15.3333H5.66667V8ZM0.666667 10.6667C0.666667 10.2993 0.966 10 1.33333 10H4.33333C4.70067 10 5 10.2993 5 10.6667V15.3333H0.666667V10.6667ZM15.3333 15.3333H11V12.6667C11 12.2993 11.2987 12 11.6667 12H14.6667C15.0347 12 15.3333 12.2993 15.3333 12.6667V15.3333ZM0.666667 8H0V7.33333C0 6.598 0.598 6 1.33333 6H2.66667C3.402 6 4 6.598 4 7.33333V8H3.33333V7.33333C3.33333 6.966 3.034 6.66667 2.66667 6.66667H1.33333C0.966 6.66667 0.666667 6.966 0.666667 7.33333V8Z" fill="url(#paint0_radial_0_4)"/>
<defs>
<radialGradient id="paint0_radial_0_4" cx="0" cy="0" r="1" gradientTransform="matrix(-15.04 -10.8387 13.44 -12.129 14.08 14.9677)" gradientUnits="userSpaceOnUse">
<stop stop-color="#C2B200"/>
<stop offset="1" stop-color="#FFEA00"/>
</radialGradient>
</defs>
</svg>
